<?xml version="1.0" encoding="UTF-8" standalone="no"?>
<!DOCTYPE svg PUBLIC "-//W3C//DTD SVG 1.1//EN"
 "http://www.w3.org/Graphics/SVG/1.1/DTD/svg11.dtd">
<!-- Generated by graphviz version 2.28.0 (20110509.1545)
 -->
<!-- Title: G Pages: 1 -->
<svg width="1108pt" height="206pt"
 viewBox="0.00 0.00 1108.00 206.00" xmlns="http://www.w3.org/2000/svg" xmlns:xlink="http://www.w3.org/1999/xlink">
<g id="graph1" class="graph" transform="scale(1 1) rotate(0) translate(4 202)">
<title>G</title>
<polygon fill="white" stroke="white" points="-4,5 -4,-202 1105,-202 1105,5 -4,5"/>
<!-- A -->
<g id="node1" class="node"><title>A</title>
<polygon fill="lightgrey" stroke="black" points="129,-123.602 92.9687,-86.6992 165.031,-86.6992 129,-123.602"/>
<text text-anchor="middle" x="129" y="-93.4" font-family="Times,serif" font-size="14.00">A</text>
</g>
<!-- B -->
<g id="node2" class="node"><title>B</title>
<polygon fill="lightgrey" stroke="black" points="218,-123.602 183.566,-86.6992 252.434,-86.6992 218,-123.602"/>
<text text-anchor="middle" x="218" y="-93.4" font-family="Times,serif" font-size="14.00">B</text>
</g>
<!-- node0 -->
<g id="node3" class="node"><title>node0</title>
<polygon fill="none" stroke="black" points="215.25,-161 215.25,-197 432.75,-197 432.75,-161 215.25,-161"/>
<text text-anchor="middle" x="225" y="-173.4" font-family="Times,serif" font-size="14.00"> </text>
<polyline fill="none" stroke="black" points="234.75,-161 234.75,-197 "/>
<text text-anchor="middle" x="249.75" y="-173.4" font-family="Times,serif" font-size="14.00">10</text>
<polyline fill="none" stroke="black" points="264.75,-161 264.75,-197 "/>
<text text-anchor="middle" x="274.5" y="-173.4" font-family="Times,serif" font-size="14.00"> </text>
<polyline fill="none" stroke="black" points="284.25,-161 284.25,-197 "/>
<text text-anchor="middle" x="299.25" y="-173.4" font-family="Times,serif" font-size="14.00">30</text>
<polyline fill="none" stroke="black" points="314.25,-161 314.25,-197 "/>
<text text-anchor="middle" x="324" y="-173.4" font-family="Times,serif" font-size="14.00"> </text>
<polyline fill="none" stroke="black" points="333.75,-161 333.75,-197 "/>
<text text-anchor="middle" x="348.75" y="-173.4" font-family="Times,serif" font-size="14.00">80</text>
<polyline fill="none" stroke="black" points="363.75,-161 363.75,-197 "/>
<text text-anchor="middle" x="373.5" y="-173.4" font-family="Times,serif" font-size="14.00"> </text>
<polyline fill="none" stroke="black" points="383.25,-161 383.25,-197 "/>
<text text-anchor="middle" x="398.25" y="-173.4" font-family="Times,serif" font-size="14.00">__</text>
<polyline fill="none" stroke="black" points="413.25,-161 413.25,-197 "/>
<text text-anchor="middle" x="423" y="-173.4" font-family="Times,serif" font-size="14.00"> </text>
</g>
<!-- node0&#45;&gt;A -->
<g id="edge2" class="edge"><title>node0:f0&#45;&gt;A</title>
<path fill="none" stroke="black" d="M225,-160C225,-155.762 181.412,-129.993 152.977,-113.633"/>
<polygon fill="black" stroke="black" points="154.417,-110.424 144,-108.491 150.937,-116.498 154.417,-110.424"/>
</g>
<!-- node0&#45;&gt;B -->
<g id="edge4" class="edge"><title>node0:f2&#45;&gt;B</title>
<path fill="none" stroke="black" d="M274,-160C274,-139.87 256.946,-123.685 241.66,-113.222"/>
<polygon fill="black" stroke="black" points="243.327,-110.134 233.007,-107.735 239.578,-116.046 243.327,-110.134"/>
</g>
<!-- node1 -->
<g id="node4" class="node"><title>node1</title>
<polygon fill="none" stroke="black" points="271.25,-81 271.25,-117 488.75,-117 488.75,-81 271.25,-81"/>
<text text-anchor="middle" x="281" y="-93.4" font-family="Times,serif" font-size="14.00"> </text>
<polyline fill="none" stroke="black" points="290.75,-81 290.75,-117 "/>
<text text-anchor="middle" x="305.75" y="-93.4" font-family="Times,serif" font-size="14.00">35</text>
<polyline fill="none" stroke="black" points="320.75,-81 320.75,-117 "/>
<text text-anchor="middle" x="330.5" y="-93.4" font-family="Times,serif" font-size="14.00"> </text>
<polyline fill="none" stroke="black" points="340.25,-81 340.25,-117 "/>
<text text-anchor="middle" x="355.25" y="-93.4" font-family="Times,serif" font-size="14.00">42</text>
<polyline fill="none" stroke="black" points="370.25,-81 370.25,-117 "/>
<text text-anchor="middle" x="380" y="-93.4" font-family="Times,serif" font-size="14.00"> </text>
<polyline fill="none" stroke="black" points="389.75,-81 389.75,-117 "/>
<text text-anchor="middle" x="404.75" y="-93.4" font-family="Times,serif" font-size="14.00">50</text>
<polyline fill="none" stroke="black" points="419.75,-81 419.75,-117 "/>
<text text-anchor="middle" x="429.5" y="-93.4" font-family="Times,serif" font-size="14.00"> </text>
<polyline fill="none" stroke="black" points="439.25,-81 439.25,-117 "/>
<text text-anchor="middle" x="454.25" y="-93.4" font-family="Times,serif" font-size="14.00">65</text>
<polyline fill="none" stroke="black" points="469.25,-81 469.25,-117 "/>
<text text-anchor="middle" x="479" y="-93.4" font-family="Times,serif" font-size="14.00"> </text>
</g>
<!-- node0&#45;&gt;node1 -->
<g id="edge6" class="edge"><title>node0:f4&#45;&gt;node1</title>
<path fill="none" stroke="black" d="M324,-160C324,-145.668 332.645,-133.335 343.142,-123.644"/>
<polygon fill="black" stroke="black" points="345.588,-126.161 351.016,-117.063 341.098,-120.79 345.588,-126.161"/>
</g>
<!-- node2 -->
<g id="node5" class="node"><title>node2</title>
<polygon fill="none" stroke="black" points="785.25,-81 785.25,-117 1002.75,-117 1002.75,-81 785.25,-81"/>
<text text-anchor="middle" x="795" y="-93.4" font-family="Times,serif" font-size="14.00"> </text>
<polyline fill="none" stroke="black" points="804.75,-81 804.75,-117 "/>
<text text-anchor="middle" x="819.75" y="-93.4" font-family="Times,serif" font-size="14.00">90</text>
<polyline fill="none" stroke="black" points="834.75,-81 834.75,-117 "/>
<text text-anchor="middle" x="844.5" y="-93.4" font-family="Times,serif" font-size="14.00"> </text>
<polyline fill="none" stroke="black" points="854.25,-81 854.25,-117 "/>
<text text-anchor="middle" x="869.25" y="-93.4" font-family="Times,serif" font-size="14.00">98</text>
<polyline fill="none" stroke="black" points="884.25,-81 884.25,-117 "/>
<text text-anchor="middle" x="894" y="-93.4" font-family="Times,serif" font-size="14.00"> </text>
<polyline fill="none" stroke="black" points="903.75,-81 903.75,-117 "/>
<text text-anchor="middle" x="918.75" y="-93.4" font-family="Times,serif" font-size="14.00">__</text>
<polyline fill="none" stroke="black" points="933.75,-81 933.75,-117 "/>
<text text-anchor="middle" x="943.5" y="-93.4" font-family="Times,serif" font-size="14.00"> </text>
<polyline fill="none" stroke="black" points="953.25,-81 953.25,-117 "/>
<text text-anchor="middle" x="968.25" y="-93.4" font-family="Times,serif" font-size="14.00">__</text>
<polyline fill="none" stroke="black" points="983.25,-81 983.25,-117 "/>
<text text-anchor="middle" x="993" y="-93.4" font-family="Times,serif" font-size="14.00"> </text>
</g>
<!-- node0&#45;&gt;node2 -->
<g id="edge8" class="edge"><title>node0:f6&#45;&gt;node2</title>
<path fill="none" stroke="black" d="M374,-160C374,-139.956 621.028,-119.039 774.56,-107.975"/>
<polygon fill="black" stroke="black" points="775.267,-111.433 784.991,-107.228 774.766,-104.451 775.267,-111.433"/>
</g>
<!-- leaf0 -->
<g id="node6" class="node"><title>leaf0</title>
<polygon fill="none" stroke="black" points="0,-1 0,-37 120,-37 120,-1 0,-1"/>
<text text-anchor="middle" x="15" y="-13.4" font-family="Times,serif" font-size="14.00">30</text>
<polyline fill="none" stroke="black" points="30,-1 30,-37 "/>
<text text-anchor="middle" x="45" y="-13.4" font-family="Times,serif" font-size="14.00">31</text>
<polyline fill="none" stroke="black" points="60,-1 60,-37 "/>
<text text-anchor="middle" x="75" y="-13.4" font-family="Times,serif" font-size="14.00">__</text>
<polyline fill="none" stroke="black" points="90,-1 90,-37 "/>
<text text-anchor="middle" x="105" y="-13.4" font-family="Times,serif" font-size="14.00">__</text>
</g>
<!-- node1&#45;&gt;leaf0 -->
<g id="edge10" class="edge"><title>node1:f0&#45;&gt;leaf0</title>
<path fill="none" stroke="black" d="M270,-99C258.191,-99 269.69,-81.9963 261,-74 259.722,-72.8237 187.384,-53.558 129.859,-38.3703"/>
<polygon fill="black" stroke="black" points="130.603,-34.9468 120.041,-35.7797 128.817,-41.7152 130.603,-34.9468"/>
</g>
<!-- leaf1 -->
<g id="node7" class="node"><title>leaf1</title>
<polygon fill="none" stroke="black" points="138,-1 138,-37 258,-37 258,-1 138,-1"/>
<text text-anchor="middle" x="153" y="-13.4" font-family="Times,serif" font-size="14.00">36</text>
<polyline fill="none" stroke="black" points="168,-1 168,-37 "/>
<text text-anchor="middle" x="183" y="-13.4" font-family="Times,serif" font-size="14.00">38</text>
<polyline fill="none" stroke="black" points="198,-1 198,-37 "/>
<text text-anchor="middle" x="213" y="-13.4" font-family="Times,serif" font-size="14.00">__</text>
<polyline fill="none" stroke="black" points="228,-1 228,-37 "/>
<text text-anchor="middle" x="243" y="-13.4" font-family="Times,serif" font-size="14.00">__</text>
</g>
<!-- node1&#45;&gt;leaf1 -->
<g id="edge12" class="edge"><title>node1:f2&#45;&gt;leaf1</title>
<path fill="none" stroke="black" d="M330,-80C330,-64.5442 299.628,-50.1106 268.022,-39.2748"/>
<polygon fill="black" stroke="black" points="268.799,-35.8454 258.206,-36.0303 266.602,-42.4918 268.799,-35.8454"/>
</g>
<!-- leaf2 -->
<g id="node8" class="node"><title>leaf2</title>
<polygon fill="none" stroke="black" points="276,-1 276,-37 396,-37 396,-1 276,-1"/>
<text text-anchor="middle" x="291" y="-13.4" font-family="Times,serif" font-size="14.00">42</text>
<polyline fill="none" stroke="black" points="306,-1 306,-37 "/>
<text text-anchor="middle" x="321" y="-13.4" font-family="Times,serif" font-size="14.00">43</text>
<polyline fill="none" stroke="black" points="336,-1 336,-37 "/>
<text text-anchor="middle" x="351" y="-13.4" font-family="Times,serif" font-size="14.00">__</text>
<polyline fill="none" stroke="black" points="366,-1 366,-37 "/>
<text text-anchor="middle" x="381" y="-13.4" font-family="Times,serif" font-size="14.00">__</text>
</g>
<!-- node1&#45;&gt;leaf2 -->
<g id="edge14" class="edge"><title>node1:f4&#45;&gt;leaf2</title>
<path fill="none" stroke="black" d="M380,-80C380,-66.7496 372.935,-54.4845 364.468,-44.5426"/>
<polygon fill="black" stroke="black" points="366.877,-41.9949 357.484,-37.093 361.77,-46.7823 366.877,-41.9949"/>
</g>
<!-- leaf3 -->
<g id="node9" class="node"><title>leaf3</title>
<polygon fill="none" stroke="black" points="414,-1 414,-37 534,-37 534,-1 414,-1"/>
<text text-anchor="middle" x="429" y="-13.4" font-family="Times,serif" font-size="14.00">51</text>
<polyline fill="none" stroke="black" points="444,-1 444,-37 "/>
<text text-anchor="middle" x="459" y="-13.4" font-family="Times,serif" font-size="14.00">52</text>
<polyline fill="none" stroke="black" points="474,-1 474,-37 "/>
<text text-anchor="middle" x="489" y="-13.4" font-family="Times,serif" font-size="14.00">56</text>
<polyline fill="none" stroke="black" points="504,-1 504,-37 "/>
<text text-anchor="middle" x="519" y="-13.4" font-family="Times,serif" font-size="14.00">__</text>
</g>
<!-- node1&#45;&gt;leaf3 -->
<g id="edge16" class="edge"><title>node1:f6&#45;&gt;leaf3</title>
<path fill="none" stroke="black" d="M430,-80C430,-66.7496 437.065,-54.4845 445.532,-44.5426"/>
<polygon fill="black" stroke="black" points="448.23,-46.7823 452.516,-37.093 443.123,-41.9949 448.23,-46.7823"/>
</g>
<!-- leaf4 -->
<g id="node10" class="node"><title>leaf4</title>
<polygon fill="none" stroke="black" points="552,-1 552,-37 672,-37 672,-1 552,-1"/>
<text text-anchor="middle" x="567" y="-13.4" font-family="Times,serif" font-size="14.00">68</text>
<polyline fill="none" stroke="black" points="582,-1 582,-37 "/>
<text text-anchor="middle" x="597" y="-13.4" font-family="Times,serif" font-size="14.00">69</text>
<polyline fill="none" stroke="black" points="612,-1 612,-37 "/>
<text text-anchor="middle" x="627" y="-13.4" font-family="Times,serif" font-size="14.00">70</text>
<polyline fill="none" stroke="black" points="642,-1 642,-37 "/>
<text text-anchor="middle" x="657" y="-13.4" font-family="Times,serif" font-size="14.00">79</text>
</g>
<!-- node1&#45;&gt;leaf4 -->
<g id="edge18" class="edge"><title>node1:f8&#45;&gt;leaf4</title>
<path fill="none" stroke="black" d="M479,-80C479,-64.3224 510.094,-49.7781 542.214,-38.9366"/>
<polygon fill="black" stroke="black" points="543.303,-42.2628 551.726,-35.8367 541.134,-35.6073 543.303,-42.2628"/>
</g>
<!-- leaf5 -->
<g id="node11" class="node"><title>leaf5</title>
<polygon fill="none" stroke="black" points="690,-1 690,-37 810,-37 810,-1 690,-1"/>
<text text-anchor="middle" x="705" y="-13.4" font-family="Times,serif" font-size="14.00">81</text>
<polyline fill="none" stroke="black" points="720,-1 720,-37 "/>
<text text-anchor="middle" x="735" y="-13.4" font-family="Times,serif" font-size="14.00">82</text>
<polyline fill="none" stroke="black" points="750,-1 750,-37 "/>
<text text-anchor="middle" x="765" y="-13.4" font-family="Times,serif" font-size="14.00">__</text>
<polyline fill="none" stroke="black" points="780,-1 780,-37 "/>
<text text-anchor="middle" x="795" y="-13.4" font-family="Times,serif" font-size="14.00">__</text>
</g>
<!-- node2&#45;&gt;leaf5 -->
<g id="edge20" class="edge"><title>node2:f0&#45;&gt;leaf5</title>
<path fill="none" stroke="black" d="M795,-80C795,-66.7462 787.886,-54.5464 779.314,-44.6578"/>
<polygon fill="black" stroke="black" points="781.674,-42.0611 772.236,-37.2469 776.612,-46.8959 781.674,-42.0611"/>
</g>
<!-- leaf6 -->
<g id="node12" class="node"><title>leaf6</title>
<polygon fill="none" stroke="black" points="828,-1 828,-37 948,-37 948,-1 828,-1"/>
<text text-anchor="middle" x="843" y="-13.4" font-family="Times,serif" font-size="14.00">94</text>
<polyline fill="none" stroke="black" points="858,-1 858,-37 "/>
<text text-anchor="middle" x="873" y="-13.4" font-family="Times,serif" font-size="14.00">95</text>
<polyline fill="none" stroke="black" points="888,-1 888,-37 "/>
<text text-anchor="middle" x="903" y="-13.4" font-family="Times,serif" font-size="14.00">96</text>
<polyline fill="none" stroke="black" points="918,-1 918,-37 "/>
<text text-anchor="middle" x="933" y="-13.4" font-family="Times,serif" font-size="14.00">97</text>
</g>
<!-- node2&#45;&gt;leaf6 -->
<g id="edge22" class="edge"><title>node2:f2&#45;&gt;leaf6</title>
<path fill="none" stroke="black" d="M844,-80C844,-66.7496 851.065,-54.4845 859.532,-44.5426"/>
<polygon fill="black" stroke="black" points="862.23,-46.7823 866.516,-37.093 857.123,-41.9949 862.23,-46.7823"/>
</g>
<!-- leaf7 -->
<g id="node13" class="node"><title>leaf7</title>
<polygon fill="none" stroke="black" points="966,-1 966,-37 1100,-37 1100,-1 966,-1"/>
<text text-anchor="middle" x="981" y="-13.4" font-family="Times,serif" font-size="14.00">98</text>
<polyline fill="none" stroke="black" points="996,-1 996,-37 "/>
<text text-anchor="middle" x="1011" y="-13.4" font-family="Times,serif" font-size="14.00">99</text>
<polyline fill="none" stroke="black" points="1026,-1 1026,-37 "/>
<text text-anchor="middle" x="1044.5" y="-13.4" font-family="Times,serif" font-size="14.00">100</text>
<polyline fill="none" stroke="black" points="1063,-1 1063,-37 "/>
<text text-anchor="middle" x="1081.5" y="-13.4" font-family="Times,serif" font-size="14.00">105</text>
</g>
<!-- node2&#45;&gt;leaf7 -->
<g id="edge24" class="edge"><title>node2:f4&#45;&gt;leaf7</title>
<path fill="none" stroke="black" d="M894,-80C894,-64.3306 924.152,-50.242 956.369,-39.6607"/>
<polygon fill="black" stroke="black" points="957.465,-42.9851 965.943,-36.6316 955.353,-36.3112 957.465,-42.9851"/>
</g>
</g>
</svg>
