<?xml version="1.0" encoding="UTF-8" standalone="no"?>
<!DOCTYPE svg PUBLIC "-//W3C//DTD SVG 1.1//EN"
 "http://www.w3.org/Graphics/SVG/1.1/DTD/svg11.dtd">
<!-- Generated by graphviz version 2.28.0 (20110509.1545)
 -->
<!-- Title: G Pages: 1 -->
<svg width="1096pt" height="206pt"
 viewBox="0.00 0.00 1096.00 206.00" xmlns="http://www.w3.org/2000/svg" xmlns:xlink="http://www.w3.org/1999/xlink">
<g id="graph1" class="graph" transform="scale(1 1) rotate(0) translate(4 202)">
<title>G</title>
<polygon fill="white" stroke="white" points="-4,5 -4,-202 1093,-202 1093,5 -4,5"/>
<!-- A -->
<g id="node1" class="node"><title>A</title>
<polygon fill="lightgrey" stroke="black" points="120,-123.602 83.9687,-86.6992 156.031,-86.6992 120,-123.602"/>
<text text-anchor="middle" x="120" y="-93.4" font-family="Times,serif" font-size="14.00">A</text>
</g>
<!-- B -->
<g id="node2" class="node"><title>B</title>
<polygon fill="lightgrey" stroke="black" points="209,-123.602 174.566,-86.6992 243.434,-86.6992 209,-123.602"/>
<text text-anchor="middle" x="209" y="-93.4" font-family="Times,serif" font-size="14.00">B</text>
</g>
<!-- node0 -->
<g id="node3" class="node"><title>node0</title>
<polygon fill="none" stroke="black" points="206.25,-161 206.25,-197 423.75,-197 423.75,-161 206.25,-161"/>
<text text-anchor="middle" x="216" y="-173.4" font-family="Times,serif" font-size="14.00"> </text>
<polyline fill="none" stroke="black" points="225.75,-161 225.75,-197 "/>
<text text-anchor="middle" x="240.75" y="-173.4" font-family="Times,serif" font-size="14.00">10</text>
<polyline fill="none" stroke="black" points="255.75,-161 255.75,-197 "/>
<text text-anchor="middle" x="265.5" y="-173.4" font-family="Times,serif" font-size="14.00"> </text>
<polyline fill="none" stroke="black" points="275.25,-161 275.25,-197 "/>
<text text-anchor="middle" x="290.25" y="-173.4" font-family="Times,serif" font-size="14.00">30</text>
<polyline fill="none" stroke="black" points="305.25,-161 305.25,-197 "/>
<text text-anchor="middle" x="315" y="-173.4" font-family="Times,serif" font-size="14.00"> </text>
<polyline fill="none" stroke="black" points="324.75,-161 324.75,-197 "/>
<text text-anchor="middle" x="339.75" y="-173.4" font-family="Times,serif" font-size="14.00">80</text>
<polyline fill="none" stroke="black" points="354.75,-161 354.75,-197 "/>
<text text-anchor="middle" x="364.5" y="-173.4" font-family="Times,serif" font-size="14.00"> </text>
<polyline fill="none" stroke="black" points="374.25,-161 374.25,-197 "/>
<text text-anchor="middle" x="389.25" y="-173.4" font-family="Times,serif" font-size="14.00">__</text>
<polyline fill="none" stroke="black" points="404.25,-161 404.25,-197 "/>
<text text-anchor="middle" x="414" y="-173.4" font-family="Times,serif" font-size="14.00"> </text>
</g>
<!-- node0&#45;&gt;A -->
<g id="edge2" class="edge"><title>node0:f0&#45;&gt;A</title>
<path fill="none" stroke="black" d="M216,-160C216,-155.762 172.412,-129.993 143.977,-113.633"/>
<polygon fill="black" stroke="black" points="145.417,-110.424 135,-108.491 141.937,-116.498 145.417,-110.424"/>
</g>
<!-- node0&#45;&gt;B -->
<g id="edge4" class="edge"><title>node0:f2&#45;&gt;B</title>
<path fill="none" stroke="black" d="M265,-160C265,-139.87 247.946,-123.685 232.66,-113.222"/>
<polygon fill="black" stroke="black" points="234.327,-110.134 224.007,-107.735 230.578,-116.046 234.327,-110.134"/>
</g>
<!-- node1 -->
<g id="node4" class="node"><title>node1</title>
<polygon fill="none" stroke="black" points="262.25,-81 262.25,-117 479.75,-117 479.75,-81 262.25,-81"/>
<text text-anchor="middle" x="272" y="-93.4" font-family="Times,serif" font-size="14.00"> </text>
<polyline fill="none" stroke="black" points="281.75,-81 281.75,-117 "/>
<text text-anchor="middle" x="296.75" y="-93.4" font-family="Times,serif" font-size="14.00">35</text>
<polyline fill="none" stroke="black" points="311.75,-81 311.75,-117 "/>
<text text-anchor="middle" x="321.5" y="-93.4" font-family="Times,serif" font-size="14.00"> </text>
<polyline fill="none" stroke="black" points="331.25,-81 331.25,-117 "/>
<text text-anchor="middle" x="346.25" y="-93.4" font-family="Times,serif" font-size="14.00">42</text>
<polyline fill="none" stroke="black" points="361.25,-81 361.25,-117 "/>
<text text-anchor="middle" x="371" y="-93.4" font-family="Times,serif" font-size="14.00"> </text>
<polyline fill="none" stroke="black" points="380.75,-81 380.75,-117 "/>
<text text-anchor="middle" x="395.75" y="-93.4" font-family="Times,serif" font-size="14.00">52</text>
<polyline fill="none" stroke="black" points="410.75,-81 410.75,-117 "/>
<text text-anchor="middle" x="420.5" y="-93.4" font-family="Times,serif" font-size="14.00"> </text>
<polyline fill="none" stroke="black" points="430.25,-81 430.25,-117 "/>
<text text-anchor="middle" x="445.25" y="-93.4" font-family="Times,serif" font-size="14.00">65</text>
<polyline fill="none" stroke="black" points="460.25,-81 460.25,-117 "/>
<text text-anchor="middle" x="470" y="-93.4" font-family="Times,serif" font-size="14.00"> </text>
</g>
<!-- node0&#45;&gt;node1 -->
<g id="edge6" class="edge"><title>node0:f4&#45;&gt;node1</title>
<path fill="none" stroke="black" d="M315,-160C315,-145.668 323.645,-133.335 334.142,-123.644"/>
<polygon fill="black" stroke="black" points="336.588,-126.161 342.016,-117.063 332.098,-120.79 336.588,-126.161"/>
</g>
<!-- node2 -->
<g id="node5" class="node"><title>node2</title>
<polygon fill="none" stroke="black" points="720.25,-81 720.25,-117 937.75,-117 937.75,-81 720.25,-81"/>
<text text-anchor="middle" x="730" y="-93.4" font-family="Times,serif" font-size="14.00"> </text>
<polyline fill="none" stroke="black" points="739.75,-81 739.75,-117 "/>
<text text-anchor="middle" x="754.75" y="-93.4" font-family="Times,serif" font-size="14.00">90</text>
<polyline fill="none" stroke="black" points="769.75,-81 769.75,-117 "/>
<text text-anchor="middle" x="779.5" y="-93.4" font-family="Times,serif" font-size="14.00"> </text>
<polyline fill="none" stroke="black" points="789.25,-81 789.25,-117 "/>
<text text-anchor="middle" x="804.25" y="-93.4" font-family="Times,serif" font-size="14.00">98</text>
<polyline fill="none" stroke="black" points="819.25,-81 819.25,-117 "/>
<text text-anchor="middle" x="829" y="-93.4" font-family="Times,serif" font-size="14.00"> </text>
<polyline fill="none" stroke="black" points="838.75,-81 838.75,-117 "/>
<text text-anchor="middle" x="853.75" y="-93.4" font-family="Times,serif" font-size="14.00">__</text>
<polyline fill="none" stroke="black" points="868.75,-81 868.75,-117 "/>
<text text-anchor="middle" x="878.5" y="-93.4" font-family="Times,serif" font-size="14.00"> </text>
<polyline fill="none" stroke="black" points="888.25,-81 888.25,-117 "/>
<text text-anchor="middle" x="903.25" y="-93.4" font-family="Times,serif" font-size="14.00">__</text>
<polyline fill="none" stroke="black" points="918.25,-81 918.25,-117 "/>
<text text-anchor="middle" x="928" y="-93.4" font-family="Times,serif" font-size="14.00"> </text>
</g>
<!-- node0&#45;&gt;node2 -->
<g id="edge8" class="edge"><title>node0:f6&#45;&gt;node2</title>
<path fill="none" stroke="black" d="M365,-160C365,-142.616 572.55,-121.647 710.028,-109.664"/>
<polygon fill="black" stroke="black" points="710.552,-113.132 720.213,-108.781 709.948,-106.158 710.552,-113.132"/>
</g>
<!-- leaf0 -->
<g id="node6" class="node"><title>leaf0</title>
<polygon fill="none" stroke="black" points="0,-1 0,-37 134,-37 134,-1 0,-1"/>
<text text-anchor="middle" x="18.5" y="-13.4" font-family="Times,serif" font-size="14.00">30*</text>
<polyline fill="none" stroke="black" points="37,-1 37,-37 "/>
<text text-anchor="middle" x="55.5" y="-13.4" font-family="Times,serif" font-size="14.00">31*</text>
<polyline fill="none" stroke="black" points="74,-1 74,-37 "/>
<text text-anchor="middle" x="89" y="-13.4" font-family="Times,serif" font-size="14.00">__</text>
<polyline fill="none" stroke="black" points="104,-1 104,-37 "/>
<text text-anchor="middle" x="119" y="-13.4" font-family="Times,serif" font-size="14.00">__</text>
</g>
<!-- node1&#45;&gt;leaf0 -->
<g id="edge10" class="edge"><title>node1:f0&#45;&gt;leaf0</title>
<path fill="none" stroke="black" d="M261,-99C249.191,-99 260.603,-82.0894 252,-74 243.637,-66.1365 191.073,-51.185 144.104,-39.005"/>
<polygon fill="black" stroke="black" points="144.74,-35.5549 134.184,-36.4515 142.995,-42.3339 144.74,-35.5549"/>
</g>
<!-- leaf1 -->
<g id="node7" class="node"><title>leaf1</title>
<polygon fill="none" stroke="black" points="152,-1 152,-37 286,-37 286,-1 152,-1"/>
<text text-anchor="middle" x="170.5" y="-13.4" font-family="Times,serif" font-size="14.00">36*</text>
<polyline fill="none" stroke="black" points="189,-1 189,-37 "/>
<text text-anchor="middle" x="207.5" y="-13.4" font-family="Times,serif" font-size="14.00">38*</text>
<polyline fill="none" stroke="black" points="226,-1 226,-37 "/>
<text text-anchor="middle" x="241" y="-13.4" font-family="Times,serif" font-size="14.00">__</text>
<polyline fill="none" stroke="black" points="256,-1 256,-37 "/>
<text text-anchor="middle" x="271" y="-13.4" font-family="Times,serif" font-size="14.00">__</text>
</g>
<!-- node1&#45;&gt;leaf1 -->
<g id="edge12" class="edge"><title>node1:f2&#45;&gt;leaf1</title>
<path fill="none" stroke="black" d="M321,-80C321,-62.7399 310.015,-50.3466 295.255,-41.4846"/>
<polygon fill="black" stroke="black" points="296.656,-38.2656 286.183,-36.6647 293.372,-44.4474 296.656,-38.2656"/>
</g>
<!-- leaf2 -->
<g id="node8" class="node"><title>leaf2</title>
<polygon fill="none" stroke="black" points="304,-1 304,-37 438,-37 438,-1 304,-1"/>
<text text-anchor="middle" x="322.5" y="-13.4" font-family="Times,serif" font-size="14.00">42*</text>
<polyline fill="none" stroke="black" points="341,-1 341,-37 "/>
<text text-anchor="middle" x="359.5" y="-13.4" font-family="Times,serif" font-size="14.00">51*</text>
<polyline fill="none" stroke="black" points="378,-1 378,-37 "/>
<text text-anchor="middle" x="393" y="-13.4" font-family="Times,serif" font-size="14.00">__</text>
<polyline fill="none" stroke="black" points="408,-1 408,-37 "/>
<text text-anchor="middle" x="423" y="-13.4" font-family="Times,serif" font-size="14.00">__</text>
</g>
<!-- node1&#45;&gt;leaf2 -->
<g id="edge14" class="edge"><title>node1:f4&#45;&gt;leaf2</title>
<path fill="none" stroke="black" d="M371,-80C371,-69.2537 371,-57.4248 371,-47.131"/>
<polygon fill="black" stroke="black" points="374.5,-47.0692 371,-37.0692 367.5,-47.0692 374.5,-47.0692"/>
</g>
<!-- leaf3 -->
<g id="node9" class="node"><title>leaf3</title>
<polygon fill="none" stroke="black" points="456,-1 456,-37 590,-37 590,-1 456,-1"/>
<text text-anchor="middle" x="474.5" y="-13.4" font-family="Times,serif" font-size="14.00">52*</text>
<polyline fill="none" stroke="black" points="493,-1 493,-37 "/>
<text text-anchor="middle" x="511.5" y="-13.4" font-family="Times,serif" font-size="14.00">56*</text>
<polyline fill="none" stroke="black" points="530,-1 530,-37 "/>
<text text-anchor="middle" x="545" y="-13.4" font-family="Times,serif" font-size="14.00">__</text>
<polyline fill="none" stroke="black" points="560,-1 560,-37 "/>
<text text-anchor="middle" x="575" y="-13.4" font-family="Times,serif" font-size="14.00">__</text>
</g>
<!-- node1&#45;&gt;leaf3 -->
<g id="edge16" class="edge"><title>node1:f6&#45;&gt;leaf3</title>
<path fill="none" stroke="black" d="M421,-80C421,-62.7399 431.985,-50.3466 446.745,-41.4846"/>
<polygon fill="black" stroke="black" points="448.628,-44.4474 455.817,-36.6647 445.344,-38.2656 448.628,-44.4474"/>
</g>
<!-- leaf5 -->
<g id="node11" class="node"><title>leaf5</title>
<polygon fill="none" stroke="black" points="608,-1 608,-37 742,-37 742,-1 608,-1"/>
<text text-anchor="middle" x="626.5" y="-13.4" font-family="Times,serif" font-size="14.00">81*</text>
<polyline fill="none" stroke="black" points="645,-1 645,-37 "/>
<text text-anchor="middle" x="663.5" y="-13.4" font-family="Times,serif" font-size="14.00">82*</text>
<polyline fill="none" stroke="black" points="682,-1 682,-37 "/>
<text text-anchor="middle" x="697" y="-13.4" font-family="Times,serif" font-size="14.00">__</text>
<polyline fill="none" stroke="black" points="712,-1 712,-37 "/>
<text text-anchor="middle" x="727" y="-13.4" font-family="Times,serif" font-size="14.00">__</text>
</g>
<!-- node2&#45;&gt;leaf5 -->
<g id="edge18" class="edge"><title>node2:f0&#45;&gt;leaf5</title>
<path fill="none" stroke="black" d="M730,-80C730,-65.7863 721.509,-53.4792 711.2,-43.7748"/>
<polygon fill="black" stroke="black" points="713.346,-41.0055 703.467,-37.1785 708.803,-46.3312 713.346,-41.0055"/>
</g>
<!-- leaf6 -->
<g id="node12" class="node"><title>leaf6</title>
<polygon fill="none" stroke="black" points="760,-1 760,-37 908,-37 908,-1 760,-1"/>
<text text-anchor="middle" x="778.5" y="-13.4" font-family="Times,serif" font-size="14.00">94*</text>
<polyline fill="none" stroke="black" points="797,-1 797,-37 "/>
<text text-anchor="middle" x="815.5" y="-13.4" font-family="Times,serif" font-size="14.00">95*</text>
<polyline fill="none" stroke="black" points="834,-1 834,-37 "/>
<text text-anchor="middle" x="852.5" y="-13.4" font-family="Times,serif" font-size="14.00">96*</text>
<polyline fill="none" stroke="black" points="871,-1 871,-37 "/>
<text text-anchor="middle" x="889.5" y="-13.4" font-family="Times,serif" font-size="14.00">97*</text>
</g>
<!-- node2&#45;&gt;leaf6 -->
<g id="edge20" class="edge"><title>node2:f2&#45;&gt;leaf6</title>
<path fill="none" stroke="black" d="M779,-80C779,-65.7863 787.491,-53.4792 797.8,-43.7748"/>
<polygon fill="black" stroke="black" points="800.197,-46.3312 805.533,-37.1785 795.654,-41.0055 800.197,-46.3312"/>
</g>
<!-- leaf7 -->
<g id="node13" class="node"><title>leaf7</title>
<polygon fill="none" stroke="black" points="926,-1 926,-37 1088,-37 1088,-1 926,-1"/>
<text text-anchor="middle" x="944.5" y="-13.4" font-family="Times,serif" font-size="14.00">98*</text>
<polyline fill="none" stroke="black" points="963,-1 963,-37 "/>
<text text-anchor="middle" x="981.5" y="-13.4" font-family="Times,serif" font-size="14.00">99*</text>
<polyline fill="none" stroke="black" points="1000,-1 1000,-37 "/>
<text text-anchor="middle" x="1022" y="-13.4" font-family="Times,serif" font-size="14.00">100*</text>
<polyline fill="none" stroke="black" points="1044,-1 1044,-37 "/>
<text text-anchor="middle" x="1066" y="-13.4" font-family="Times,serif" font-size="14.00">105*</text>
</g>
<!-- node2&#45;&gt;leaf7 -->
<g id="edge22" class="edge"><title>node2:f4&#45;&gt;leaf7</title>
<path fill="none" stroke="black" d="M829,-80C829,-68.845 879.847,-52.4747 927.188,-39.6503"/>
<polygon fill="black" stroke="black" points="928.148,-43.0167 936.905,-37.0531 926.341,-36.2541 928.148,-43.0167"/>
</g>
<!-- leaf4 -->
<g id="node10" class="node"><title>leaf4</title>
<polygon fill="none" stroke="black" points="442,-161 442,-197 590,-197 590,-161 442,-161"/>
<text text-anchor="middle" x="460.5" y="-173.4" font-family="Times,serif" font-size="14.00">68*</text>
<polyline fill="none" stroke="black" points="479,-161 479,-197 "/>
<text text-anchor="middle" x="497.5" y="-173.4" font-family="Times,serif" font-size="14.00">69*</text>
<polyline fill="none" stroke="black" points="516,-161 516,-197 "/>
<text text-anchor="middle" x="534.5" y="-173.4" font-family="Times,serif" font-size="14.00">70*</text>
<polyline fill="none" stroke="black" points="553,-161 553,-197 "/>
<text text-anchor="middle" x="571.5" y="-173.4" font-family="Times,serif" font-size="14.00">79*</text>
</g>
</g>
</svg>
